<mxfile host="Electron" modified="2023-09-12T08:49:26.264Z" agent="Mozilla/5.0 (Windows NT 10.0; Win64; x64) AppleWebKit/537.36 (KHTML, like Gecko) draw.io/21.6.5 Chrome/114.0.5735.243 Electron/25.3.1 Safari/537.36" etag="glwObv3f_e38Jc6wmNCO" version="21.6.5" type="device">
  <diagram name="Page-1" id="Ul5kmNIMI1Xum8MqzQQK">
    <mxGraphModel dx="1738" dy="1149" grid="1" gridSize="10" guides="1" tooltips="1" connect="1" arrows="1" fold="1" page="1" pageScale="1" pageWidth="1000" pageHeight="700" math="0" shadow="0">
      <root>
        <mxCell id="0" />
        <mxCell id="1" parent="0" />
        <mxCell id="VN4UC_M7gO2sdeHPYcpS-69" style="edgeStyle=orthogonalEdgeStyle;shape=connector;rounded=0;orthogonalLoop=1;jettySize=auto;html=1;exitX=1;exitY=0.5;exitDx=0;exitDy=0;exitPerimeter=0;entryX=0;entryY=0.25;entryDx=0;entryDy=0;entryPerimeter=0;labelBackgroundColor=default;strokeColor=default;fontFamily=Helvetica;fontSize=11;fontColor=default;endArrow=none;" edge="1" parent="1" source="VN4UC_M7gO2sdeHPYcpS-1" target="VN4UC_M7gO2sdeHPYcpS-7">
          <mxGeometry relative="1" as="geometry" />
        </mxCell>
        <mxCell id="VN4UC_M7gO2sdeHPYcpS-1" value="" style="shape=or;whiteSpace=wrap;html=1;" vertex="1" parent="1">
          <mxGeometry x="390" y="170" width="60" height="80" as="geometry" />
        </mxCell>
        <mxCell id="VN4UC_M7gO2sdeHPYcpS-73" style="edgeStyle=orthogonalEdgeStyle;shape=connector;rounded=0;orthogonalLoop=1;jettySize=auto;html=1;exitX=1;exitY=0.5;exitDx=0;exitDy=0;exitPerimeter=0;entryX=0;entryY=0.25;entryDx=0;entryDy=0;entryPerimeter=0;labelBackgroundColor=default;strokeColor=default;fontFamily=Helvetica;fontSize=11;fontColor=default;endArrow=none;" edge="1" parent="1" source="VN4UC_M7gO2sdeHPYcpS-7" target="VN4UC_M7gO2sdeHPYcpS-9">
          <mxGeometry relative="1" as="geometry" />
        </mxCell>
        <mxCell id="VN4UC_M7gO2sdeHPYcpS-7" value="" style="shape=or;whiteSpace=wrap;html=1;" vertex="1" parent="1">
          <mxGeometry x="530" y="220" width="60" height="80" as="geometry" />
        </mxCell>
        <mxCell id="VN4UC_M7gO2sdeHPYcpS-74" style="edgeStyle=orthogonalEdgeStyle;shape=connector;rounded=0;orthogonalLoop=1;jettySize=auto;html=1;exitX=1;exitY=0.5;exitDx=0;exitDy=0;exitPerimeter=0;entryX=0;entryY=0.75;entryDx=0;entryDy=0;entryPerimeter=0;labelBackgroundColor=default;strokeColor=default;fontFamily=Helvetica;fontSize=11;fontColor=default;endArrow=none;" edge="1" parent="1" source="VN4UC_M7gO2sdeHPYcpS-8" target="VN4UC_M7gO2sdeHPYcpS-9">
          <mxGeometry relative="1" as="geometry" />
        </mxCell>
        <mxCell id="VN4UC_M7gO2sdeHPYcpS-8" value="" style="shape=or;whiteSpace=wrap;html=1;" vertex="1" parent="1">
          <mxGeometry x="530" y="420" width="60" height="80" as="geometry" />
        </mxCell>
        <mxCell id="VN4UC_M7gO2sdeHPYcpS-77" style="edgeStyle=orthogonalEdgeStyle;shape=connector;rounded=0;orthogonalLoop=1;jettySize=auto;html=1;exitX=1;exitY=0.5;exitDx=0;exitDy=0;exitPerimeter=0;entryX=0;entryY=0.25;entryDx=0;entryDy=0;entryPerimeter=0;labelBackgroundColor=default;strokeColor=default;fontFamily=Helvetica;fontSize=11;fontColor=default;endArrow=none;" edge="1" parent="1" source="VN4UC_M7gO2sdeHPYcpS-9" target="VN4UC_M7gO2sdeHPYcpS-75">
          <mxGeometry relative="1" as="geometry" />
        </mxCell>
        <mxCell id="VN4UC_M7gO2sdeHPYcpS-9" value="" style="shape=or;whiteSpace=wrap;html=1;" vertex="1" parent="1">
          <mxGeometry x="660" y="320" width="60" height="80" as="geometry" />
        </mxCell>
        <mxCell id="VN4UC_M7gO2sdeHPYcpS-34" style="edgeStyle=orthogonalEdgeStyle;shape=connector;rounded=0;orthogonalLoop=1;jettySize=auto;html=1;exitX=1;exitY=0.5;exitDx=0;exitDy=0;entryX=0;entryY=0.75;entryDx=0;entryDy=0;entryPerimeter=0;labelBackgroundColor=default;strokeColor=default;fontFamily=Helvetica;fontSize=11;fontColor=default;endArrow=none;" edge="1" parent="1" source="VN4UC_M7gO2sdeHPYcpS-32" target="VN4UC_M7gO2sdeHPYcpS-1">
          <mxGeometry relative="1" as="geometry" />
        </mxCell>
        <mxCell id="VN4UC_M7gO2sdeHPYcpS-32" value="op_code[3]" style="text;html=1;strokeColor=none;fillColor=none;align=center;verticalAlign=middle;whiteSpace=wrap;rounded=0;" vertex="1" parent="1">
          <mxGeometry x="270" y="215" width="70" height="30" as="geometry" />
        </mxCell>
        <mxCell id="VN4UC_M7gO2sdeHPYcpS-78" style="edgeStyle=orthogonalEdgeStyle;shape=connector;rounded=0;orthogonalLoop=1;jettySize=auto;html=1;exitDx=0;exitDy=0;entryX=0;entryY=0.25;entryDx=0;entryDy=0;entryPerimeter=0;labelBackgroundColor=default;strokeColor=default;fontFamily=Helvetica;fontSize=11;fontColor=default;endArrow=none;" edge="1" parent="1" source="VN4UC_M7gO2sdeHPYcpS-79" target="VN4UC_M7gO2sdeHPYcpS-1">
          <mxGeometry relative="1" as="geometry" />
        </mxCell>
        <mxCell id="VN4UC_M7gO2sdeHPYcpS-35" value="&lt;font style=&quot;font-size: 18px;&quot;&gt;1&lt;/font&gt;" style="text;html=1;strokeColor=none;fillColor=none;align=center;verticalAlign=middle;whiteSpace=wrap;rounded=0;" vertex="1" parent="1">
          <mxGeometry x="150" y="175" width="20" height="30" as="geometry" />
        </mxCell>
        <mxCell id="VN4UC_M7gO2sdeHPYcpS-41" style="edgeStyle=orthogonalEdgeStyle;shape=connector;rounded=0;orthogonalLoop=1;jettySize=auto;html=1;exitX=0;exitY=0.25;exitDx=0;exitDy=0;exitPerimeter=0;entryX=1;entryY=0.5;entryDx=0;entryDy=0;labelBackgroundColor=default;strokeColor=default;fontFamily=Helvetica;fontSize=11;fontColor=default;endArrow=none;" edge="1" parent="1" source="VN4UC_M7gO2sdeHPYcpS-42" target="VN4UC_M7gO2sdeHPYcpS-46">
          <mxGeometry relative="1" as="geometry">
            <mxPoint x="340" y="290" as="targetPoint" />
          </mxGeometry>
        </mxCell>
        <mxCell id="VN4UC_M7gO2sdeHPYcpS-70" style="edgeStyle=orthogonalEdgeStyle;shape=connector;rounded=0;orthogonalLoop=1;jettySize=auto;html=1;exitX=1;exitY=0.5;exitDx=0;exitDy=0;exitPerimeter=0;entryX=0;entryY=0.75;entryDx=0;entryDy=0;entryPerimeter=0;labelBackgroundColor=default;strokeColor=default;fontFamily=Helvetica;fontSize=11;fontColor=default;endArrow=none;" edge="1" parent="1" source="VN4UC_M7gO2sdeHPYcpS-42" target="VN4UC_M7gO2sdeHPYcpS-7">
          <mxGeometry relative="1" as="geometry" />
        </mxCell>
        <mxCell id="VN4UC_M7gO2sdeHPYcpS-42" value="" style="shape=or;whiteSpace=wrap;html=1;" vertex="1" parent="1">
          <mxGeometry x="390" y="270" width="60" height="80" as="geometry" />
        </mxCell>
        <mxCell id="VN4UC_M7gO2sdeHPYcpS-43" style="edgeStyle=orthogonalEdgeStyle;shape=connector;rounded=0;orthogonalLoop=1;jettySize=auto;html=1;exitX=1;exitY=0.5;exitDx=0;exitDy=0;entryX=0;entryY=0.75;entryDx=0;entryDy=0;entryPerimeter=0;labelBackgroundColor=default;strokeColor=default;fontFamily=Helvetica;fontSize=11;fontColor=default;endArrow=none;" edge="1" parent="1" source="VN4UC_M7gO2sdeHPYcpS-44" target="VN4UC_M7gO2sdeHPYcpS-42">
          <mxGeometry relative="1" as="geometry" />
        </mxCell>
        <mxCell id="VN4UC_M7gO2sdeHPYcpS-44" value="op_code[2]" style="text;html=1;strokeColor=none;fillColor=none;align=center;verticalAlign=middle;whiteSpace=wrap;rounded=0;" vertex="1" parent="1">
          <mxGeometry x="270" y="315" width="70" height="30" as="geometry" />
        </mxCell>
        <mxCell id="VN4UC_M7gO2sdeHPYcpS-45" value="" style="group" vertex="1" connectable="0" parent="1">
          <mxGeometry x="290" y="280" width="25" height="20" as="geometry" />
        </mxCell>
        <mxCell id="VN4UC_M7gO2sdeHPYcpS-46" value="" style="triangle;whiteSpace=wrap;html=1;fontFamily=Helvetica;fontSize=11;fontColor=default;" vertex="1" parent="VN4UC_M7gO2sdeHPYcpS-45">
          <mxGeometry width="20" height="20" as="geometry" />
        </mxCell>
        <mxCell id="VN4UC_M7gO2sdeHPYcpS-47" value="" style="ellipse;whiteSpace=wrap;html=1;aspect=fixed;fontFamily=Helvetica;fontSize=11;fontColor=default;" vertex="1" parent="VN4UC_M7gO2sdeHPYcpS-45">
          <mxGeometry x="20" y="7.5" width="5" height="5" as="geometry" />
        </mxCell>
        <mxCell id="VN4UC_M7gO2sdeHPYcpS-48" style="edgeStyle=orthogonalEdgeStyle;shape=connector;rounded=0;orthogonalLoop=1;jettySize=auto;html=1;exitX=0;exitY=0.25;exitDx=0;exitDy=0;exitPerimeter=0;entryX=1;entryY=0.5;entryDx=0;entryDy=0;labelBackgroundColor=default;strokeColor=default;fontFamily=Helvetica;fontSize=11;fontColor=default;endArrow=none;" edge="1" parent="1" source="VN4UC_M7gO2sdeHPYcpS-49" target="VN4UC_M7gO2sdeHPYcpS-53">
          <mxGeometry relative="1" as="geometry">
            <mxPoint x="340" y="390" as="targetPoint" />
          </mxGeometry>
        </mxCell>
        <mxCell id="VN4UC_M7gO2sdeHPYcpS-71" style="edgeStyle=orthogonalEdgeStyle;shape=connector;rounded=0;orthogonalLoop=1;jettySize=auto;html=1;exitX=1;exitY=0.5;exitDx=0;exitDy=0;exitPerimeter=0;entryX=0;entryY=0.25;entryDx=0;entryDy=0;entryPerimeter=0;labelBackgroundColor=default;strokeColor=default;fontFamily=Helvetica;fontSize=11;fontColor=default;endArrow=none;" edge="1" parent="1" source="VN4UC_M7gO2sdeHPYcpS-49" target="VN4UC_M7gO2sdeHPYcpS-8">
          <mxGeometry relative="1" as="geometry" />
        </mxCell>
        <mxCell id="VN4UC_M7gO2sdeHPYcpS-49" value="" style="shape=or;whiteSpace=wrap;html=1;" vertex="1" parent="1">
          <mxGeometry x="390" y="370" width="60" height="80" as="geometry" />
        </mxCell>
        <mxCell id="VN4UC_M7gO2sdeHPYcpS-50" style="edgeStyle=orthogonalEdgeStyle;shape=connector;rounded=0;orthogonalLoop=1;jettySize=auto;html=1;exitX=1;exitY=0.5;exitDx=0;exitDy=0;entryX=0;entryY=0.75;entryDx=0;entryDy=0;entryPerimeter=0;labelBackgroundColor=default;strokeColor=default;fontFamily=Helvetica;fontSize=11;fontColor=default;endArrow=none;" edge="1" parent="1" source="VN4UC_M7gO2sdeHPYcpS-51" target="VN4UC_M7gO2sdeHPYcpS-49">
          <mxGeometry relative="1" as="geometry" />
        </mxCell>
        <mxCell id="VN4UC_M7gO2sdeHPYcpS-51" value="op_code[1]" style="text;html=1;strokeColor=none;fillColor=none;align=center;verticalAlign=middle;whiteSpace=wrap;rounded=0;" vertex="1" parent="1">
          <mxGeometry x="270" y="415" width="70" height="30" as="geometry" />
        </mxCell>
        <mxCell id="VN4UC_M7gO2sdeHPYcpS-52" value="" style="group" vertex="1" connectable="0" parent="1">
          <mxGeometry x="290" y="380" width="25" height="20" as="geometry" />
        </mxCell>
        <mxCell id="VN4UC_M7gO2sdeHPYcpS-53" value="" style="triangle;whiteSpace=wrap;html=1;fontFamily=Helvetica;fontSize=11;fontColor=default;" vertex="1" parent="VN4UC_M7gO2sdeHPYcpS-52">
          <mxGeometry width="20" height="20" as="geometry" />
        </mxCell>
        <mxCell id="VN4UC_M7gO2sdeHPYcpS-54" value="" style="ellipse;whiteSpace=wrap;html=1;aspect=fixed;fontFamily=Helvetica;fontSize=11;fontColor=default;" vertex="1" parent="VN4UC_M7gO2sdeHPYcpS-52">
          <mxGeometry x="20" y="7.5" width="5" height="5" as="geometry" />
        </mxCell>
        <mxCell id="VN4UC_M7gO2sdeHPYcpS-55" style="edgeStyle=orthogonalEdgeStyle;shape=connector;rounded=0;orthogonalLoop=1;jettySize=auto;html=1;exitX=0;exitY=0.25;exitDx=0;exitDy=0;exitPerimeter=0;entryX=1;entryY=0.5;entryDx=0;entryDy=0;labelBackgroundColor=default;strokeColor=default;fontFamily=Helvetica;fontSize=11;fontColor=default;endArrow=none;" edge="1" parent="1" source="VN4UC_M7gO2sdeHPYcpS-56" target="VN4UC_M7gO2sdeHPYcpS-60">
          <mxGeometry relative="1" as="geometry">
            <mxPoint x="340" y="490" as="targetPoint" />
          </mxGeometry>
        </mxCell>
        <mxCell id="VN4UC_M7gO2sdeHPYcpS-72" style="edgeStyle=orthogonalEdgeStyle;shape=connector;rounded=0;orthogonalLoop=1;jettySize=auto;html=1;exitX=1;exitY=0.5;exitDx=0;exitDy=0;exitPerimeter=0;entryX=0;entryY=0.75;entryDx=0;entryDy=0;entryPerimeter=0;labelBackgroundColor=default;strokeColor=default;fontFamily=Helvetica;fontSize=11;fontColor=default;endArrow=none;" edge="1" parent="1" source="VN4UC_M7gO2sdeHPYcpS-56" target="VN4UC_M7gO2sdeHPYcpS-8">
          <mxGeometry relative="1" as="geometry" />
        </mxCell>
        <mxCell id="VN4UC_M7gO2sdeHPYcpS-56" value="" style="shape=or;whiteSpace=wrap;html=1;" vertex="1" parent="1">
          <mxGeometry x="390" y="470" width="60" height="80" as="geometry" />
        </mxCell>
        <mxCell id="VN4UC_M7gO2sdeHPYcpS-57" style="edgeStyle=orthogonalEdgeStyle;shape=connector;rounded=0;orthogonalLoop=1;jettySize=auto;html=1;exitX=1;exitY=0.5;exitDx=0;exitDy=0;entryX=0;entryY=0.75;entryDx=0;entryDy=0;entryPerimeter=0;labelBackgroundColor=default;strokeColor=default;fontFamily=Helvetica;fontSize=11;fontColor=default;endArrow=none;" edge="1" parent="1" source="VN4UC_M7gO2sdeHPYcpS-58" target="VN4UC_M7gO2sdeHPYcpS-56">
          <mxGeometry relative="1" as="geometry" />
        </mxCell>
        <mxCell id="VN4UC_M7gO2sdeHPYcpS-58" value="op_code[0]" style="text;html=1;strokeColor=none;fillColor=none;align=center;verticalAlign=middle;whiteSpace=wrap;rounded=0;" vertex="1" parent="1">
          <mxGeometry x="270" y="515" width="70" height="30" as="geometry" />
        </mxCell>
        <mxCell id="VN4UC_M7gO2sdeHPYcpS-59" value="" style="group" vertex="1" connectable="0" parent="1">
          <mxGeometry x="290" y="480" width="25" height="20" as="geometry" />
        </mxCell>
        <mxCell id="VN4UC_M7gO2sdeHPYcpS-60" value="" style="triangle;whiteSpace=wrap;html=1;fontFamily=Helvetica;fontSize=11;fontColor=default;" vertex="1" parent="VN4UC_M7gO2sdeHPYcpS-59">
          <mxGeometry width="20" height="20" as="geometry" />
        </mxCell>
        <mxCell id="VN4UC_M7gO2sdeHPYcpS-61" value="" style="ellipse;whiteSpace=wrap;html=1;aspect=fixed;fontFamily=Helvetica;fontSize=11;fontColor=default;" vertex="1" parent="VN4UC_M7gO2sdeHPYcpS-59">
          <mxGeometry x="20" y="7.5" width="5" height="5" as="geometry" />
        </mxCell>
        <mxCell id="VN4UC_M7gO2sdeHPYcpS-76" style="edgeStyle=orthogonalEdgeStyle;shape=connector;rounded=0;orthogonalLoop=1;jettySize=auto;html=1;exitX=1;exitY=0.5;exitDx=0;exitDy=0;exitPerimeter=0;entryX=0;entryY=0.75;entryDx=0;entryDy=0;entryPerimeter=0;labelBackgroundColor=default;strokeColor=default;fontFamily=Helvetica;fontSize=11;fontColor=default;endArrow=none;" edge="1" parent="1" source="VN4UC_M7gO2sdeHPYcpS-63" target="VN4UC_M7gO2sdeHPYcpS-75">
          <mxGeometry relative="1" as="geometry" />
        </mxCell>
        <mxCell id="VN4UC_M7gO2sdeHPYcpS-90" style="edgeStyle=orthogonalEdgeStyle;shape=connector;rounded=0;orthogonalLoop=1;jettySize=auto;html=1;exitX=0;exitY=0.25;exitDx=0;exitDy=0;exitPerimeter=0;entryX=0.739;entryY=0.746;entryDx=0;entryDy=0;entryPerimeter=0;labelBackgroundColor=default;strokeColor=default;fontFamily=Helvetica;fontSize=11;fontColor=default;endArrow=none;" edge="1" parent="1" source="VN4UC_M7gO2sdeHPYcpS-63" target="VN4UC_M7gO2sdeHPYcpS-88">
          <mxGeometry relative="1" as="geometry" />
        </mxCell>
        <mxCell id="VN4UC_M7gO2sdeHPYcpS-63" value="" style="shape=or;whiteSpace=wrap;html=1;" vertex="1" parent="1">
          <mxGeometry x="390" y="570" width="60" height="80" as="geometry" />
        </mxCell>
        <mxCell id="VN4UC_M7gO2sdeHPYcpS-64" style="edgeStyle=orthogonalEdgeStyle;shape=connector;rounded=0;orthogonalLoop=1;jettySize=auto;html=1;exitX=1;exitY=0.5;exitDx=0;exitDy=0;entryX=0;entryY=0.75;entryDx=0;entryDy=0;entryPerimeter=0;labelBackgroundColor=default;strokeColor=default;fontFamily=Helvetica;fontSize=11;fontColor=default;endArrow=none;" edge="1" parent="1" source="VN4UC_M7gO2sdeHPYcpS-65" target="VN4UC_M7gO2sdeHPYcpS-63">
          <mxGeometry relative="1" as="geometry" />
        </mxCell>
        <mxCell id="VN4UC_M7gO2sdeHPYcpS-65" value="utility bit" style="text;html=1;strokeColor=none;fillColor=none;align=center;verticalAlign=middle;whiteSpace=wrap;rounded=0;" vertex="1" parent="1">
          <mxGeometry x="270" y="615" width="70" height="30" as="geometry" />
        </mxCell>
        <mxCell id="VN4UC_M7gO2sdeHPYcpS-92" style="edgeStyle=orthogonalEdgeStyle;shape=connector;rounded=0;orthogonalLoop=1;jettySize=auto;html=1;exitX=1;exitY=0.5;exitDx=0;exitDy=0;exitPerimeter=0;entryX=0;entryY=0.5;entryDx=0;entryDy=0;labelBackgroundColor=default;strokeColor=default;fontFamily=Helvetica;fontSize=11;fontColor=default;endArrow=none;" edge="1" parent="1" source="VN4UC_M7gO2sdeHPYcpS-75" target="VN4UC_M7gO2sdeHPYcpS-91">
          <mxGeometry relative="1" as="geometry" />
        </mxCell>
        <mxCell id="VN4UC_M7gO2sdeHPYcpS-75" value="" style="shape=or;whiteSpace=wrap;html=1;fontFamily=Helvetica;fontSize=11;fontColor=default;" vertex="1" parent="1">
          <mxGeometry x="760" y="445" width="60" height="80" as="geometry" />
        </mxCell>
        <mxCell id="VN4UC_M7gO2sdeHPYcpS-80" value="" style="edgeStyle=orthogonalEdgeStyle;shape=connector;rounded=0;orthogonalLoop=1;jettySize=auto;html=1;exitX=1;exitY=0.5;exitDx=0;exitDy=0;entryDx=0;entryDy=0;entryPerimeter=0;labelBackgroundColor=default;strokeColor=default;fontFamily=Helvetica;fontSize=11;fontColor=default;endArrow=none;" edge="1" parent="1" source="VN4UC_M7gO2sdeHPYcpS-35" target="VN4UC_M7gO2sdeHPYcpS-79">
          <mxGeometry relative="1" as="geometry">
            <mxPoint x="170" y="190" as="sourcePoint" />
            <mxPoint x="390" y="190" as="targetPoint" />
          </mxGeometry>
        </mxCell>
        <mxCell id="VN4UC_M7gO2sdeHPYcpS-79" value="" style="shape=waypoint;sketch=0;fillStyle=solid;size=6;pointerEvents=1;points=[];fillColor=none;resizable=0;rotatable=0;perimeter=centerPerimeter;snapToPoint=1;fontFamily=Helvetica;fontSize=11;fontColor=default;" vertex="1" parent="1">
          <mxGeometry x="190" y="180" width="20" height="20" as="geometry" />
        </mxCell>
        <mxCell id="VN4UC_M7gO2sdeHPYcpS-81" style="edgeStyle=orthogonalEdgeStyle;shape=connector;rounded=0;orthogonalLoop=1;jettySize=auto;html=1;exitDx=0;exitDy=0;entryX=0.565;entryY=0.862;entryDx=0;entryDy=0;entryPerimeter=0;labelBackgroundColor=default;strokeColor=default;fontFamily=Helvetica;fontSize=11;fontColor=default;endArrow=none;" edge="1" parent="1" source="VN4UC_M7gO2sdeHPYcpS-82" target="VN4UC_M7gO2sdeHPYcpS-79">
          <mxGeometry relative="1" as="geometry" />
        </mxCell>
        <mxCell id="VN4UC_M7gO2sdeHPYcpS-83" value="" style="edgeStyle=orthogonalEdgeStyle;shape=connector;rounded=0;orthogonalLoop=1;jettySize=auto;html=1;exitX=0;exitY=0.5;exitDx=0;exitDy=0;entryDx=0;entryDy=0;entryPerimeter=0;labelBackgroundColor=default;strokeColor=default;fontFamily=Helvetica;fontSize=11;fontColor=default;endArrow=none;" edge="1" parent="1" source="VN4UC_M7gO2sdeHPYcpS-46" target="VN4UC_M7gO2sdeHPYcpS-82">
          <mxGeometry relative="1" as="geometry">
            <mxPoint x="290" y="290" as="sourcePoint" />
            <mxPoint x="200" y="190" as="targetPoint" />
          </mxGeometry>
        </mxCell>
        <mxCell id="VN4UC_M7gO2sdeHPYcpS-82" value="" style="shape=waypoint;sketch=0;fillStyle=solid;size=6;pointerEvents=1;points=[];fillColor=none;resizable=0;rotatable=0;perimeter=centerPerimeter;snapToPoint=1;fontFamily=Helvetica;fontSize=11;fontColor=default;" vertex="1" parent="1">
          <mxGeometry x="190" y="280" width="20" height="20" as="geometry" />
        </mxCell>
        <mxCell id="VN4UC_M7gO2sdeHPYcpS-84" style="edgeStyle=orthogonalEdgeStyle;shape=connector;rounded=0;orthogonalLoop=1;jettySize=auto;html=1;exitDx=0;exitDy=0;entryX=0.391;entryY=0.529;entryDx=0;entryDy=0;entryPerimeter=0;labelBackgroundColor=default;strokeColor=default;fontFamily=Helvetica;fontSize=11;fontColor=default;endArrow=none;" edge="1" parent="1" source="VN4UC_M7gO2sdeHPYcpS-85" target="VN4UC_M7gO2sdeHPYcpS-82">
          <mxGeometry relative="1" as="geometry" />
        </mxCell>
        <mxCell id="VN4UC_M7gO2sdeHPYcpS-86" value="" style="edgeStyle=orthogonalEdgeStyle;shape=connector;rounded=0;orthogonalLoop=1;jettySize=auto;html=1;exitX=0;exitY=0.5;exitDx=0;exitDy=0;entryDx=0;entryDy=0;entryPerimeter=0;labelBackgroundColor=default;strokeColor=default;fontFamily=Helvetica;fontSize=11;fontColor=default;endArrow=none;" edge="1" parent="1" source="VN4UC_M7gO2sdeHPYcpS-53" target="VN4UC_M7gO2sdeHPYcpS-85">
          <mxGeometry relative="1" as="geometry">
            <mxPoint x="290" y="390" as="sourcePoint" />
            <mxPoint x="200" y="290" as="targetPoint" />
          </mxGeometry>
        </mxCell>
        <mxCell id="VN4UC_M7gO2sdeHPYcpS-85" value="" style="shape=waypoint;sketch=0;fillStyle=solid;size=6;pointerEvents=1;points=[];fillColor=none;resizable=0;rotatable=0;perimeter=centerPerimeter;snapToPoint=1;fontFamily=Helvetica;fontSize=11;fontColor=default;" vertex="1" parent="1">
          <mxGeometry x="190" y="380" width="20" height="20" as="geometry" />
        </mxCell>
        <mxCell id="VN4UC_M7gO2sdeHPYcpS-87" style="edgeStyle=orthogonalEdgeStyle;shape=connector;rounded=0;orthogonalLoop=1;jettySize=auto;html=1;exitDx=0;exitDy=0;entryX=0.696;entryY=0.92;entryDx=0;entryDy=0;entryPerimeter=0;labelBackgroundColor=default;strokeColor=default;fontFamily=Helvetica;fontSize=11;fontColor=default;endArrow=none;" edge="1" parent="1" source="VN4UC_M7gO2sdeHPYcpS-88" target="VN4UC_M7gO2sdeHPYcpS-85">
          <mxGeometry relative="1" as="geometry" />
        </mxCell>
        <mxCell id="VN4UC_M7gO2sdeHPYcpS-89" value="" style="edgeStyle=orthogonalEdgeStyle;shape=connector;rounded=0;orthogonalLoop=1;jettySize=auto;html=1;exitX=0;exitY=0.5;exitDx=0;exitDy=0;entryDx=0;entryDy=0;entryPerimeter=0;labelBackgroundColor=default;strokeColor=default;fontFamily=Helvetica;fontSize=11;fontColor=default;endArrow=none;" edge="1" parent="1" source="VN4UC_M7gO2sdeHPYcpS-60" target="VN4UC_M7gO2sdeHPYcpS-88">
          <mxGeometry relative="1" as="geometry">
            <mxPoint x="290" y="490" as="sourcePoint" />
            <mxPoint x="200" y="390" as="targetPoint" />
          </mxGeometry>
        </mxCell>
        <mxCell id="VN4UC_M7gO2sdeHPYcpS-88" value="" style="shape=waypoint;sketch=0;fillStyle=solid;size=6;pointerEvents=1;points=[];fillColor=none;resizable=0;rotatable=0;perimeter=centerPerimeter;snapToPoint=1;fontFamily=Helvetica;fontSize=11;fontColor=default;" vertex="1" parent="1">
          <mxGeometry x="190" y="480" width="20" height="20" as="geometry" />
        </mxCell>
        <mxCell id="VN4UC_M7gO2sdeHPYcpS-91" value="&lt;font style=&quot;font-size: 13px;&quot;&gt;cpy_pc_en&lt;/font&gt;" style="text;html=1;strokeColor=none;fillColor=none;align=center;verticalAlign=middle;whiteSpace=wrap;rounded=0;fontSize=11;fontFamily=Helvetica;fontColor=default;" vertex="1" parent="1">
          <mxGeometry x="860" y="470" width="90" height="30" as="geometry" />
        </mxCell>
        <mxCell id="VN4UC_M7gO2sdeHPYcpS-93" value="&lt;h1&gt;Instruction Decoding&lt;/h1&gt;&lt;p&gt;&lt;font style=&quot;font-size: 14px;&quot;&gt;One possible way that the intruction decoder is synthesized. This example uses the isntruction &quot;cpy_pc&quot; as example, whos op_code is 0b1001&lt;/font&gt;&lt;/p&gt;" style="text;html=1;strokeColor=none;fillColor=none;spacing=5;spacingTop=-20;whiteSpace=wrap;overflow=hidden;rounded=0;fontSize=11;fontFamily=Helvetica;fontColor=default;" vertex="1" parent="1">
          <mxGeometry x="40" y="40" width="390" height="120" as="geometry" />
        </mxCell>
      </root>
    </mxGraphModel>
  </diagram>
</mxfile>
